# xmcd
#
# Track frame offsets: 
#        150
#        31198
#        52868
#        80115
#        91290
#        122980
#        146928
#        166415
#        176298
#        193385
#
# Disc length: 3116 seconds
#
# Revision: 1
# Processed by: cddbd v1.5.2PL0 Copyright (c) Steve Scherf et al.
# Submitted via: ExactAudioCopyFreeDBPlugin 1.0
#
DISCID=890c2a0a
DTITLE=Kyuss - Welcome to Sky Valley
DYEAR=1994
DGENRE=Stoner Rock
TTITLE0=Gardenia
TTITLE1=Asteroid
TTITLE2=Supa Scoopa and Mighty Scoop
TTITLE3=100°
TTITLE4=Space Cadet
TTITLE5=Demon Cleaner
TTITLE6=Odyssey
TTITLE7=Conan Troutman
TTITLE8=N.O.
TTITLE9=Whitewater
EXTD=
EXTT0=
EXTT1=
EXTT2=
EXTT3=
EXTT4=
EXTT5=
EXTT6=
EXTT7=
EXTT8=
EXTT9=
PLAYORDER=
